<?xml version="1.0" encoding="utf-8"?>
<!-- Generator: Adobe Illustrator 19.2.0, SVG Export Plug-In . SVG Version: 6.00 Build 0)  -->
<!DOCTYPE svg PUBLIC "-//W3C//DTD SVG 1.1//EN" "http://www.w3.org/Graphics/SVG/1.1/DTD/svg11.dtd">
<svg version="1.1" id="GraphQL_Logo" xmlns="http://www.w3.org/2000/svg" xmlns:xlink="http://www.w3.org/1999/xlink" x="0px"
	 y="0px" viewBox="0 0 400 400" enable-background="new 0 0 400 400" xml:space="preserve">
<path fill="#E535AB" d="M356.8,250.2c-3-1.7-6.1-2.9-9.3-3.7l0-93c3.2-0.8,6.3-2,9.3-3.7c16.7-9.6,22.4-31,12.8-47.7
	c-9.6-16.7-31-22.4-47.7-12.8c-3,1.7-5.6,3.8-7.8,6.2L233.5,49c0.9-3.1,1.4-6.4,1.4-9.9c0-19.3-15.6-34.9-34.9-34.9
	c-19.3,0-34.9,15.6-34.9,34.9c0,3.4,0.5,6.7,1.4,9.9L86,95.5c-2.3-2.4-4.9-4.5-7.8-6.2c-16.7-9.6-38-3.9-47.7,12.8
	c-9.6,16.7-3.9,38,12.8,47.7c3,1.7,6.1,2.9,9.3,3.7l0,93c-3.2,0.8-6.3,2-9.3,3.7c-16.7,9.6-22.4,31-12.8,47.7
	c9.6,16.7,31,22.4,47.7,12.8c3-1.7,5.6-3.8,7.8-6.2l80.6,46.5c-0.9,3.1-1.4,6.4-1.4,9.9c0,19.3,15.6,34.9,34.9,34.9
	c19.3,0,34.9-15.6,34.9-34.9c0-3.8-0.6-7.5-1.8-10.9l80.2-46.3c2.4,2.7,5.3,5.1,8.6,7c16.7,9.6,38,3.9,47.7-12.8
	C379.2,281.2,373.5,259.9,356.8,250.2z M94.6,272.2c-0.8-3.2-2-6.3-3.7-9.2c-1.7-2.9-3.7-5.5-6.1-7.7L190.3,72.6
	c3.1,0.9,6.4,1.4,9.7,1.4c3.4,0,6.6-0.5,9.7-1.4l105.5,182.7c-2.3,2.2-4.4,4.8-6.1,7.7c-1.7,3-2.9,6.1-3.7,9.2L94.6,272.2z
	 M305.8,110c-2.5,8.8-1.6,18.5,3.3,27c4.9,8.5,12.9,14.2,21.8,16.4l0,93.2c-0.4,0.1-0.9,0.2-1.3,0.4L224.1,64.3c0.3-0.3,0.6-0.6,1-1
	L305.8,110z M174.9,63.4c0.3,0.3,0.6,0.6,0.9,0.9L70.4,246.9c-0.4-0.1-0.8-0.2-1.3-0.3l0-93.2c8.9-2.2,16.8-7.9,21.8-16.4
	c4.9-8.5,5.8-18.3,3.3-27L174.9,63.4z M225.8,337.4c-6.4-7-15.6-11.5-25.8-11.5c-9.8,0-18.7,4.1-25.1,10.6L94.2,290
	c0.1-0.4,0.2-0.8,0.3-1.2l210.9,0c0.2,0.8,0.4,1.5,0.6,2.3L225.8,337.4z"/>
</svg>
